<?xml version="1.0"?>
<svg width="24" height="24" xmlns="http://www.w3.org/2000/svg" xmlnsSvg="http://www.w3.org/2000/svg" enableBackground="new 0 0 24 24" version="1.1" xmlSpace="preserve">
 <style type="text/css">.st0{display:none;}</style>
 <g class="layer">
  <title>Layer 1</title>
  <g class="st0" id="grid"/>
  <g id="icon">
   <path d="m21.98,0l-19.96,0c-1.12,0 -2.02,0.9 -2.02,2.02l0,19.96c0,1.12 0.9,2.02 2.02,2.02l19.96,0c1.12,0 2.02,-0.9 2.02,-2.02l0,-19.96c0,-1.12 -0.9,-2.02 -2.02,-2.02zm1.02,21.98c0,0.56 -0.46,1.02 -1.02,1.02l-19.96,0c-0.56,0 -1.02,-0.46 -1.02,-1.02l0,-19.96c0,-0.56 0.46,-1.02 1.02,-1.02l19.96,0c0.56,0 1.02,0.46 1.02,1.02l0,19.96z" fill="#ffffff" id="svg_1"/>
   <path d="m16.8,8.4l-6.13,6.14l-2.92,-2.92c-0.19,-0.2 -0.51,-0.2 -0.7,0s-0.2,0.51 0,0.71l3.27,3.27c0.09,0.09 0.22,0.14 0.35,0.14s0.26,-0.05 0.35,-0.14l6.49,-6.49c0.19,-0.19 0.19,-0.51 0,-0.71s-0.51,-0.19 -0.71,0z" fill="#ffffff" id="svg_2"/>
  </g>
 </g>
</svg>